<svg width="506" height="506" viewBox="0 0 506 506" fill="none" xmlns="http://www.w3.org/2000/svg">
<rect y="253" width="253" height="253" fill="#E43717"/>
<rect x="253" y="253" width="253" height="253" fill="#3178C6"/>
<rect x="253" width="253" height="253" fill="#FFC131"/>
<rect width="253" height="253" fill="#24C8DB"/>
<rect x="77" y="77" width="352" height="352" fill="black"/>
<path d="M138.278 350H183.878V158H145.478V206.4H101.478V114H320.678V206.4H276.678V158H238.678V350H283.878V394H138.278V350Z" fill="white"/>
<path d="M340.352 389.48C338.816 386.067 337.493 382.141 336.384 377.704C335.275 373.181 334.72 367.848 334.72 361.704C334.72 357.267 335.275 353.512 336.384 350.44C337.408 347.283 338.901 344.765 340.864 342.888C342.827 340.925 345.173 339.517 347.904 338.664C350.635 337.811 353.707 337.384 357.12 337.384C361.472 337.384 365.184 337.555 368.256 337.896C371.328 338.152 374.059 338.28 376.448 338.28C378.24 338.28 380.245 338.195 382.464 338.024C383.659 337.853 384.811 337.725 385.92 337.64L385.92 329.32L400 329.32L400 350.568L391.296 352.232L391.296 352.872C393.941 354.579 396.245 357.011 398.208 360.168C400.085 363.325 401.024 367.592 401.024 372.968C401.024 379.368 399.317 384.445 395.904 388.2C392.491 391.955 387.968 393.832 382.336 393.832C378.752 393.832 375.68 393.192 373.12 391.912C370.475 390.547 368.341 388.627 366.72 386.152C365.013 383.592 363.776 380.563 363.008 377.064C362.155 373.48 361.728 369.512 361.728 365.16C361.728 363.624 361.813 362.003 361.984 360.296C362.155 358.589 362.325 356.499 362.496 354.024C361.643 353.853 360.789 353.768 359.936 353.768L357.504 353.768C354.261 353.768 351.957 354.707 350.592 356.584C349.141 358.461 348.416 361.235 348.416 364.904C348.416 369.256 348.971 373.181 350.08 376.68C351.189 380.179 352.299 383.123 353.408 385.512L340.352 389.48ZM387.328 367.592C387.328 363.496 386.603 360.424 385.152 358.376C383.616 356.328 381.995 354.835 380.288 353.896L372.608 353.896C372.437 354.749 372.267 356.029 372.096 357.736C371.84 359.443 371.712 361.277 371.712 363.24C371.712 364.861 371.883 366.483 372.224 368.104C372.48 369.725 372.949 371.176 373.632 372.456C374.229 373.736 375.04 374.76 376.064 375.528C377.088 376.296 378.325 376.68 379.776 376.68C382.165 376.68 384.043 375.997 385.408 374.632C386.688 373.181 387.328 370.835 387.328 367.592ZM336 251.29L336 227.482L380.544 227.482C382.336 227.482 384.128 227.482 385.92 227.482L385.92 217.754L400 217.754L400 237.978L390.528 240.922L390.528 241.434C393.771 243.397 396.459 246.341 398.592 250.266C400.725 254.191 401.792 258.543 401.792 263.322C401.792 266.565 401.365 269.551 400.512 272.282C399.659 274.927 398.251 277.189 396.288 279.066C394.325 280.943 391.68 282.394 388.352 283.418C385.024 284.442 380.843 284.954 375.808 284.954L350.08 284.954L350.08 292.25L336 292.25L336 268.314L372.352 268.314C377.557 268.314 381.312 267.503 383.616 265.882C385.92 264.175 387.072 261.53 387.072 257.946C387.072 254.789 386.133 251.973 384.256 249.498C382.379 246.938 380.075 245.146 377.344 244.122L350.08 244.122L350.08 251.29L336 251.29ZM366.976 159.052L336 181.324L336 161.484L357.376 147.02L336 131.916L336 113.868L366.72 135.756L400 112.588L400 131.916L376.448 148.172L400 164.684L400 182.86L366.976 159.052Z" fill="white"/>
</svg>
